#N canvas 723 167 907 865 10;
#X obj 319 271 - 0;
#X obj 143 242 *~;
#X obj 255 128 line~;
#X obj 143 194 *~;
#X msg 472 72 0 \$2;
#X obj 319 242 1;
#X obj 143 324 *~ 0.5;
#X obj 217 325 *~ 0.5;
#X obj 472 50 pack 0 1000;
#X obj 289 219 t 0.5 b 0.5;
#X msg 337 75 1 \$2;
#X obj 337 137 line~;
#X obj 468 -322 r \$1_open;
#X obj 213 243 *~;
#X obj 213 194 *~;
#X obj 132 -61 t b b;
#X obj 545 19 max 5;
#X obj 394 23 max 5;
#X obj 337 52 pack 1 100;
#X obj 545 50 del 1000;
#X obj 499 18 t b b;
#X msg 545 73 stop;
#X msg 642 -194 stop;
#X obj 132 -246 r \$1_in;
#X obj 132 -213 route play stop attack release level pan;
#X msg 539 -33 0 10;
#X obj 279 -246 s msgin:;
#X obj 702 51 print open:;
#X obj 107 445 print play:;
#X obj 286 456 print stop:;
#X obj 494 355 soundfiler;
#X floatatom 494 377 0 0 0 0 - - -;
#X msg 255 60 \$1 500;
#X obj 494 194 symbol;
#X text 542 193 use the full path of hte sound file!;
#X msg 457 151 \$1;
#X text 582 -291 file-name offset-in-ms;
#X text 671 -244 L2R: stop duck-ramp serve-play-offset;
#X obj 488 -128 del 10;
#X obj 98 -10 f;
#X obj 418 355 print read:;
#X obj 468 -292 unpack s f;
#X obj 560 -257 t f b b;
#N canvas 0 22 450 278 (subpatch) 0;
#X array \$1_arrayL 772992 float 2;
#X coords 0 1 772992 -1 200 140 1 0 0;
#X restore 419 415 graph;
#X obj 12 123 tabplay~ \$1_arrayL;
#X obj 129 123 tabplay~ \$1_arrayR;
#N canvas 0 22 450 278 (subpatch) 0;
#X array \$1_arrayR 772992 float 2;
#X coords 0 1 772992 -1 200 140 1 0 0;
#X restore 626 415 graph;
#X msg 494 321 read -resize \$1 \$2 \$3;
#X obj 493 288 pack s s s;
#X obj 494 219 t s b b;
#X obj 503 250 symbol \$1_arrayL;
#X obj 606 250 symbol \$1_arrayR;
#X obj 143 360 throw~ left;
#X obj 217 361 throw~ right;
#X msg 494 151 /Users/kfl/dev/git/public_projects/SoundScapeTK/SoundScapeTK-iOS/SoundScapeTK/pd/01.wav
;
#X obj 376 -155 print lvl:;
#X obj 388 195 print ramp:;
#X connect 0 0 6 1;
#X connect 1 0 6 0;
#X connect 2 0 1 1;
#X connect 2 0 13 1;
#X connect 3 0 1 0;
#X connect 4 0 11 0;
#X connect 4 0 56 0;
#X connect 5 0 0 0;
#X connect 6 0 52 0;
#X connect 7 0 53 0;
#X connect 8 0 4 0;
#X connect 9 0 7 1;
#X connect 9 1 5 0;
#X connect 9 2 0 1;
#X connect 10 0 11 0;
#X connect 10 0 56 0;
#X connect 11 0 3 1;
#X connect 11 0 14 1;
#X connect 12 0 41 0;
#X connect 13 0 7 0;
#X connect 14 0 13 0;
#X connect 15 0 18 0;
#X connect 15 1 39 0;
#X connect 16 0 8 1;
#X connect 16 0 19 1;
#X connect 17 0 18 1;
#X connect 18 0 10 0;
#X connect 19 0 21 0;
#X connect 20 0 8 0;
#X connect 20 1 19 0;
#X connect 21 0 44 0;
#X connect 21 0 45 0;
#X connect 21 0 56 0;
#X connect 22 0 27 0;
#X connect 22 0 38 0;
#X connect 23 0 24 0;
#X connect 23 0 26 0;
#X connect 24 0 15 0;
#X connect 24 1 20 0;
#X connect 24 2 17 0;
#X connect 24 3 16 0;
#X connect 24 4 32 0;
#X connect 24 4 55 0;
#X connect 24 5 9 0;
#X connect 25 0 11 0;
#X connect 25 0 27 0;
#X connect 30 0 31 0;
#X connect 32 0 2 0;
#X connect 33 0 49 0;
#X connect 35 0 33 0;
#X connect 35 0 27 0;
#X connect 38 0 44 0;
#X connect 38 0 45 0;
#X connect 39 0 28 0;
#X connect 39 0 44 0;
#X connect 39 0 45 0;
#X connect 41 0 35 0;
#X connect 41 1 39 1;
#X connect 41 1 42 0;
#X connect 42 0 27 0;
#X connect 42 1 25 0;
#X connect 42 2 22 0;
#X connect 44 0 3 0;
#X connect 45 0 14 0;
#X connect 47 0 30 0;
#X connect 47 0 40 0;
#X connect 48 0 47 0;
#X connect 49 0 48 0;
#X connect 49 1 50 0;
#X connect 49 2 51 0;
#X connect 50 0 48 1;
#X connect 51 0 48 2;
#X connect 54 0 33 0;
