#N canvas 74 545 1435 455 10;
#X msg -334 -241 play;
#X msg -298 -241 stop;
#X msg -260 -241 level 1;
#X obj -334 -155 s 1_in;
#X obj -251 -169 s 1_open;
#N canvas 857 406 822 376 DAC 0;
#X obj 447 -765 line~;
#X obj 447 -823 / 127;
#X obj 446 -856 inlet;
#X obj 31 -653 *~;
#X obj 154 -511 dac~;
#X obj 79 -654 *~;
#N canvas 96 169 958 610 reverb 0;
#X obj 13 19 inlet~;
#X obj 13 43 reverb-echo echo-del1 5.43216;
#X obj 277 215 +~;
#X obj 319 215 +~;
#X obj 67 276 outlet~;
#X obj 137 276 outlet~;
#X obj 238 334 +~;
#X obj 280 334 -~;
#X obj 282 473 *~ 0;
#X obj 237 472 *~ 0;
#X obj 632 365 inlet;
#X obj 632 389 min 100;
#X obj 632 412 max 0;
#X obj 238 583 delwrite~ loop-del1 60;
#X obj 283 561 delwrite~ loop-del2 71.9345;
#X obj 298 154 delread~ loop-del1 60;
#X obj 340 179 delread~ loop-del2 71.9345;
#X obj 13 67 reverb-echo echo-del2 8.45346;
#X obj 13 91 reverb-echo echo-del3 13.4367;
#X obj 13 115 reverb-echo echo-del4 21.5463;
#X text 286 42 "early echo" generators \, which also increase echo
density. Open one to see what they do.;
#X text 300 115 Get the outputs of the recirculating delays. Add the
inputs to two of them.;
#X text 420 313 Do a power-conserving mix of them in pairs. First combine
(1 \, 2) and (3 \, 4)...;
#X text 402 385 ...then (1 \, 3) and (2 \, 4);
#X text 446 469 The two mixing stages have a combined gain of 2 \,
so the recirculation gain is limited to 0.5.;
#X text 586 542 Put the signals back into the;
#X text 584 557 recirculating delays.;
#X text 29 296 Tap outputs from here.;
#X text 708 381 0 to 100 to control reverb;
#X text 719 396 time.;
#X text 691 364 feedback gain on a scale of;
#X obj 632 437 / 100;
#X connect 0 0 1 0;
#X connect 1 0 17 0;
#X connect 1 1 17 1;
#X connect 2 0 4 0;
#X connect 2 0 6 0;
#X connect 2 0 7 0;
#X connect 3 0 5 0;
#X connect 3 0 6 1;
#X connect 3 0 7 1;
#X connect 6 0 9 0;
#X connect 7 0 8 0;
#X connect 8 0 14 0;
#X connect 9 0 13 0;
#X connect 10 0 11 0;
#X connect 11 0 12 0;
#X connect 12 0 31 0;
#X connect 15 0 2 1;
#X connect 16 0 3 1;
#X connect 17 0 18 0;
#X connect 17 1 18 1;
#X connect 18 0 19 0;
#X connect 18 1 19 1;
#X connect 19 0 2 0;
#X connect 19 1 3 0;
#X connect 31 0 9 1;
#X connect 31 0 8 1;
#X restore 195 -547 pd reverb;
#X obj 246 -601 loadbang;
#X obj 522 -856 r _master_volume;
#X obj -32 -800 catch~ left;
#X obj 109 -800 catch~ right;
#X obj 210 -839 catch~ pctr;
#X obj 142 -589 lop~ 800;
#X obj 142 -616 *~ 0.5;
#X obj 210 -810 hip~ 50;
#X obj 210 -785 *~ 0.5;
#X obj 41 -801 catch~ ctr;
#X obj 36 -744 *~ 0.7;
#X msg 447 -794 \$1 1000;
#X msg 246 -574 22;
#X connect 0 0 3 1;
#X connect 0 0 5 1;
#X connect 1 0 18 0;
#X connect 2 0 1 0;
#X connect 3 0 4 0;
#X connect 3 0 13 0;
#X connect 5 0 4 1;
#X connect 5 0 13 0;
#X connect 6 0 4 0;
#X connect 6 1 4 1;
#X connect 7 0 19 0;
#X connect 8 0 18 0;
#X connect 9 0 3 0;
#X connect 10 0 5 0;
#X connect 11 0 14 0;
#X connect 12 0 6 0;
#X connect 13 0 12 0;
#X connect 14 0 15 0;
#X connect 15 0 5 0;
#X connect 15 0 3 0;
#X connect 16 0 17 0;
#X connect 17 0 3 0;
#X connect 17 0 5 0;
#X connect 18 0 0 0;
#X connect 19 0 6 1;
#X restore -126 -26 pd DAC;
#X obj -123 -49 hsl 128 15 0 127 0 0 empty empty empty -2 -8 0 10 -262144
-1 -1 3000 1;
#X obj 192 -140 noise~;
#X obj 192 -111 send~ noise;
#X obj -343 -86 play_sf_stereo 0;
#X msg -251 -211 /Users/kfl/dev/git/public_projects/SoundScapeTK/SoundScapeTK-iOS/SoundScapeTK/pd/01.wav
0;
#X obj -240 -86 play_sf_stereo 1;
#X obj -35 -86 play_sf_stereo 3;
#X obj -137 -86 play_sf_stereo 2;
#X obj 192 -85 bpf_demo_ios 10 20 9 24300 ctr;
#X text 81 -43 10_ = vox \, 20_ = center freq group/namespace (for
sends) \, 9 = harmonic \, 24300 = 2 second period \, left = channel
\,;
#X obj 468 -116 s 10_lfo_phase;
#X obj 558 -116 s 10_noise_level;
#X obj 660 -116 s 10_pulse_width;
#X obj 762 -116 s 10_pulse_level;
#X obj 366 -116 s 20_center_freq;
#X floatatom 365 -142 5 0 0 0 - - -;
#X floatatom 467 -143 5 0 0 0 - - -;
#X floatatom 560 -146 5 0 0 0 - - -;
#X floatatom 662 -147 5 0 0 0 - - -;
#X floatatom 761 -148 5 0 0 0 - - -;
#X connect 0 0 3 0;
#X connect 1 0 3 0;
#X connect 2 0 3 0;
#X connect 6 0 5 0;
#X connect 7 0 8 0;
#X connect 10 0 4 0;
#X connect 21 0 20 0;
#X connect 22 0 16 0;
#X connect 23 0 17 0;
#X connect 24 0 18 0;
#X connect 25 0 19 0;
