#N canvas 32 203 1641 735 10;
#X obj 19 -84 noise~;
#X obj 785 81 tgl 15 0 empty empty empty 17 7 0 10 -262144 -1 -1 0
1;
#X msg 785 105 \; pd dsp \$1;
#N canvas 119 562 822 376 DAC 1;
#X obj 447 -765 line~;
#X obj 447 -823 / 127;
#X obj 446 -856 inlet;
#X obj 31 -653 *~;
#X obj 154 -511 dac~;
#X obj 79 -654 *~;
#X msg 447 -794 \$1 5000;
#N canvas 96 169 958 610 reverb 0;
#X obj 13 19 inlet~;
#X obj 13 43 reverb-echo echo-del1 5.43216;
#X obj 277 215 +~;
#X obj 319 215 +~;
#X obj 67 276 outlet~;
#X obj 137 276 outlet~;
#X obj 238 334 +~;
#X obj 280 334 -~;
#X obj 282 473 *~ 0;
#X obj 237 472 *~ 0;
#X obj 632 365 inlet;
#X obj 632 389 min 100;
#X obj 632 412 max 0;
#X obj 238 583 delwrite~ loop-del1 60;
#X obj 283 561 delwrite~ loop-del2 71.9345;
#X obj 298 154 delread~ loop-del1 60;
#X obj 340 179 delread~ loop-del2 71.9345;
#X obj 13 67 reverb-echo echo-del2 8.45346;
#X obj 13 91 reverb-echo echo-del3 13.4367;
#X obj 13 115 reverb-echo echo-del4 21.5463;
#X text 286 42 "early echo" generators \, which also increase echo
density. Open one to see what they do.;
#X text 300 115 Get the outputs of the recirculating delays. Add the
inputs to two of them.;
#X text 420 313 Do a power-conserving mix of them in pairs. First combine
(1 \, 2) and (3 \, 4)...;
#X text 402 385 ...then (1 \, 3) and (2 \, 4);
#X text 446 469 The two mixing stages have a combined gain of 2 \,
so the recirculation gain is limited to 0.5.;
#X text 586 542 Put the signals back into the;
#X text 584 557 recirculating delays.;
#X text 29 296 Tap outputs from here.;
#X text 708 381 0 to 100 to control reverb;
#X text 719 396 time.;
#X text 691 364 feedback gain on a scale of;
#X obj 632 437 / 100;
#X connect 0 0 1 0;
#X connect 1 0 17 0;
#X connect 1 1 17 1;
#X connect 2 0 4 0;
#X connect 2 0 6 0;
#X connect 2 0 7 0;
#X connect 3 0 5 0;
#X connect 3 0 6 1;
#X connect 3 0 7 1;
#X connect 6 0 9 0;
#X connect 7 0 8 0;
#X connect 8 0 14 0;
#X connect 9 0 13 0;
#X connect 10 0 11 0;
#X connect 11 0 12 0;
#X connect 12 0 31 0;
#X connect 15 0 2 1;
#X connect 16 0 3 1;
#X connect 17 0 18 0;
#X connect 17 1 18 1;
#X connect 18 0 19 0;
#X connect 18 1 19 1;
#X connect 19 0 2 0;
#X connect 19 1 3 0;
#X connect 31 0 9 1;
#X connect 31 0 8 1;
#X restore 195 -547 pd reverb;
#X obj 311 -635 loadbang;
#X obj 522 -856 r _master_volume;
#X obj -32 -800 catch~ left;
#X obj 109 -800 catch~ right;
#X obj 42 -800 catch~ ctr;
#X msg 313 -603 70;
#X obj 226 -800 catch~ pctr;
#X obj 142 -589 lop~ 800;
#X obj 142 -616 *~ 0.5;
#X obj 226 -767 hip~ 50;
#X obj 157 -719 *~ 0.5;
#X connect 0 0 3 1;
#X connect 0 0 5 1;
#X connect 1 0 6 0;
#X connect 2 0 1 0;
#X connect 3 0 4 0;
#X connect 3 0 16 0;
#X connect 5 0 4 1;
#X connect 5 0 16 0;
#X connect 6 0 0 0;
#X connect 7 0 4 0;
#X connect 7 0 4 1;
#X connect 8 0 13 0;
#X connect 9 0 6 0;
#X connect 10 0 3 0;
#X connect 11 0 5 0;
#X connect 12 0 5 0;
#X connect 12 0 3 0;
#X connect 13 0 7 1;
#X connect 14 0 17 0;
#X connect 15 0 7 0;
#X connect 16 0 15 0;
#X connect 17 0 18 0;
#X connect 18 0 5 0;
#X connect 18 0 3 0;
#X restore 505 122 pd DAC;
#X floatatom 2945 210 9 0 0 0 - - -;
#X obj 2945 76 vsl 15 128 1e-05 1 1 0 empty empty empty 0 -9 0 10 -262144
-1 -1 0 1;
#X obj 2818 276 send_ctl_bpf 15 0.2;
#X text 86 -110 1 2 4 8 16 32 64 128 256 512 1024 2048 4096 8192 4096
2048;
#X text 78 -85 1 2 3 4 5 6 7 8 9 10 11 12 13 16 32 64 - cfreqs \, set
in APP;
#X obj 19 -40 send~ noise;
#X obj 508 99 hsl 128 15 0 127 0 0 empty empty empty -2 -8 0 10 -262144
-1 -1 0 1;
#X obj 655 40 bpf_empac 7 0.86 8 128 ctr;
#X obj 859 40 bpf_empac 9 0.75 10 512 right;
#X obj 451 40 bpf_empac 5 0.95 6 32 right;
#X obj 759 5 bpf_empac 8 0.8 9 256 left;
#X obj 11 5 bpf_empac 0 1 1 1 ctr;
#X obj 180 5 bpf_empac 2 1 3 4 ctr;
#X obj 93 40 bpf_empac 1 1 2 2 ctr;
#X obj 263 40 bpf_empac 3 1 4 8 ctr;
#X obj 350 5 bpf_empac 4 0.98 5 16 left;
#X obj 555 5 bpf_empac 6 0.91 7 64 left;
#X obj 963 6 bpf_empac 10 0.69 11 1024 left;
#X obj 1069 43 bpf_empac 11 0.62 12 2048 right;
#X obj 1174 7 bpf_empac 12 0.54 13 4096 left;
#X obj 1275 42 bpf_empac 13 0.45 16 8192 right;
#X obj 1379 7 bpf_empac 14 0.35 32 4096 ctr;
#X obj 1485 41 bpf_empac 15 0.24 64 2048 ctr;
#X connect 0 0 9 0;
#X connect 1 0 2 0;
#X connect 4 0 6 4;
#X connect 5 0 4 0;
#X connect 10 0 3 0;
