#N canvas 1193 251 682 860 10;
#X obj 251 268 - 0;
#X obj 60 254 *~;
#X obj 162 141 line~;
#X obj 60 197 *~;
#X msg 379 121 0 \$2;
#X obj 251 239 1;
#X obj 60 336 *~ 0.5;
#X obj 137 337 *~ 0.5;
#X obj 379 89 pack 0 1000;
#X obj 60 372 outlet~;
#X obj 137 373 outlet~;
#X obj 226 198 t 0.5 b 0.5;
#X msg 254 117 1 \$2;
#X obj 254 149 line~;
#X obj 385 -310 r \$1_open;
#X obj 385 -257 symbol \$1;
#X obj 133 255 *~;
#X obj 130 206 *~;
#X obj 49 -29 t b b;
#X obj 385 -280 unpack s f;
#X msg 162 118 \$1 750;
#X obj 499 15 max 5;
#X obj 311 55 max 5;
#X obj 254 84 pack 1 100;
#X msg 76 85 start;
#X obj 429 138 del 1000;
#X obj 76 140 mp3play~;
#X obj 379 56 t b b;
#X msg 411 160 stop;
#X obj 471 -179 f;
#X msg 512 -179 stop;
#X obj 323 -131 pack f s s;
#X obj 327 -179 symbol open_at;
#X msg 266 -225 open_at \$1;
#X obj 49 -157 r \$1_in;
#X obj 49 -124 route play stop attack release level pan;
#X msg 446 -92 0 10;
#X obj 369 -228 t b b s b b b;
#X obj 326 250 s ramp:;
#X obj 196 -157 s msgin:;
#X obj 458 -282 s \$0_open_:;
#X obj 196 -4 s lvl:;
#X obj 552 -17 print open:;
#X obj 433 459 print open:;
#X msg 312 -94 \$2 \$3;
#X obj -16 273 print play:;
#X obj 62 29 del 910;
#X obj 273 -179 del 900;
#X obj 366 210 print stop:;
#X connect 0 0 6 1;
#X connect 1 0 6 0;
#X connect 2 0 1 1;
#X connect 2 0 16 1;
#X connect 3 0 1 0;
#X connect 4 0 13 0;
#X connect 4 0 38 0;
#X connect 4 0 48 0;
#X connect 5 0 0 0;
#X connect 6 0 9 0;
#X connect 7 0 10 0;
#X connect 8 0 4 0;
#X connect 11 0 7 1;
#X connect 11 1 5 0;
#X connect 11 2 0 1;
#X connect 12 0 13 0;
#X connect 12 0 38 0;
#X connect 12 0 45 0;
#X connect 13 0 3 1;
#X connect 13 0 17 1;
#X connect 14 0 19 0;
#X connect 14 0 40 0;
#X connect 15 0 37 0;
#X connect 16 0 7 0;
#X connect 17 0 16 0;
#X connect 18 0 23 0;
#X connect 18 1 46 0;
#X connect 19 0 15 0;
#X connect 19 1 29 1;
#X connect 20 0 2 0;
#X connect 20 0 38 0;
#X connect 21 0 8 1;
#X connect 21 0 25 1;
#X connect 22 0 23 1;
#X connect 23 0 12 0;
#X connect 24 0 26 0;
#X connect 24 0 45 0;
#X connect 25 0 28 0;
#X connect 26 0 3 0;
#X connect 26 1 17 0;
#X connect 27 0 8 0;
#X connect 27 1 25 0;
#X connect 28 0 26 0;
#X connect 28 0 48 0;
#X connect 29 0 26 1;
#X connect 29 0 42 0;
#X connect 30 0 26 0;
#X connect 30 0 42 0;
#X connect 31 0 44 0;
#X connect 32 0 31 1;
#X connect 32 0 42 0;
#X connect 34 0 35 0;
#X connect 34 0 39 0;
#X connect 35 0 18 0;
#X connect 35 1 27 0;
#X connect 35 2 22 0;
#X connect 35 3 21 0;
#X connect 35 4 20 0;
#X connect 35 4 41 0;
#X connect 35 5 11 0;
#X connect 36 0 13 0;
#X connect 36 0 2 0;
#X connect 37 0 47 0;
#X connect 37 1 32 0;
#X connect 37 2 31 2;
#X connect 37 2 42 0;
#X connect 37 3 29 0;
#X connect 37 4 36 0;
#X connect 37 4 42 0;
#X connect 37 5 30 0;
#X connect 44 0 26 0;
#X connect 44 0 42 0;
#X connect 46 0 24 0;
#X connect 47 0 31 0;
