#N canvas 88 222 768 732 10;
#X obj -185 289 dac~;
#X obj -203 -70 play_sf 3;
#X obj -267 -70 play_sf 2;
#X obj -331 -70 play_sf 1;
#X obj -395 -70 play_sf 0;
#X obj -48 28 r freq;
#X obj 146 -5 r lfodepth;
#X obj 35 -30 r lforate;
#X obj -50 90 osc~ 100;
#X obj 35 -1 osc~ 0;
#X obj 3 150 *~;
#X obj 3 180 *~ 0.1;
#X floatatom 113 -33 5 0 0 0 - - -;
#X msg 146 25 \$1 100;
#X floatatom 233 6 5 0 0 0 - - -;
#X floatatom -17 58 5 0 0 0 - - -;
#X obj -51 121 *~ 0.1;
#X obj 93 75 line~;
#X obj 37 114 *~;
#X connect 1 0 0 0;
#X connect 1 1 0 1;
#X connect 2 0 0 0;
#X connect 2 1 0 1;
#X connect 3 0 0 0;
#X connect 3 1 0 1;
#X connect 4 0 0 0;
#X connect 4 1 0 1;
#X connect 5 0 8 0;
#X connect 6 0 13 0;
#X connect 7 0 9 0;
#X connect 8 0 16 0;
#X connect 9 0 18 0;
#X connect 10 0 11 0;
#X connect 11 0 0 1;
#X connect 11 0 0 0;
#X connect 12 0 9 0;
#X connect 13 0 17 0;
#X connect 14 0 13 0;
#X connect 15 0 8 0;
#X connect 16 0 10 0;
#X connect 17 0 18 1;
#X connect 18 0 10 1;
