#N canvas 257 22 1031 722 10;
#X obj 98 269 *~;
#X obj 262 144 phasor~;
#X obj 262 120 sig~;
#X obj 262 211 cos~;
#X text 565 2 _lfo_phase: (0. - 1.) initial phase value;
#X text 566 -20 _cfreq: (Hz) center freq for the band pass filter;
#X obj 322 143 r \$1_lfo_phase;
#X obj 98 312 *~;
#X obj 340 295 line~;
#X obj 262 237 *~;
#X obj 339 230 * \$2;
#X obj 262 87 /;
#X obj 259 -27 loadbang;
#X obj 98 45 receive~ noise;
#X obj 129 160 line 0 10;
#X msg 129 128 \$1 200;
#X obj 98 579 throw~ \$5;
#X obj 252 50 \$4;
#X obj 98 211 bp~ 100 100;
#X obj 128 186 * \$3;
#X obj 129 71 r _center_freq;
#X obj 262 182 +~;
#X obj 642 290 line~;
#X obj 554 421 cos~;
#X obj 554 327 -~ 0.5;
#X obj 554 361 *~;
#X obj 554 393 clip~ -0.5 0.5;
#X text 689 242 fix range;
#X text 684 314 add 1;
#X text 584 363 increase amplitude;
#X obj 642 315 +~ 1;
#X obj 554 444 +~ 1;
#X obj 554 468 *~ 0.5;
#X obj 642 221 r \$1_pulse_width;
#X obj 339 184 r \$1_noise_level;
#X obj 553 532 *~;
#X obj 655 487 line~;
#X obj 654 393 r \$1_pulse_level;
#X text 568 112 _pulse_level (0. - 1.) for this voice;
#X text 569 94 _noise_level (0. - 1.) for this voice;
#X text 564 41 _pulse_width: (0. - 100.) initial phase value;
#X msg 654 442 \$1 1000;
#X obj 642 266 pack 0 200;
#X msg 339 250 \$1 1000;
#X obj 554 240 phasor~;
#X obj 554 214 sig~;
#X msg 259 -2 84600;
#X obj 259 25 t b f;
#X obj 554 190 * 8;
#X obj 554 267 +~;
#X obj 554 294 wrap~;
#X obj 553 565 throw~ pctr;
#X connect 0 0 7 0;
#X connect 1 0 21 0;
#X connect 2 0 1 0;
#X connect 3 0 9 0;
#X connect 3 0 9 1;
#X connect 6 0 21 1;
#X connect 6 0 49 1;
#X connect 7 0 16 0;
#X connect 8 0 7 1;
#X connect 9 0 0 1;
#X connect 10 0 43 0;
#X connect 11 0 2 0;
#X connect 11 0 48 0;
#X connect 12 0 46 0;
#X connect 13 0 18 0;
#X connect 14 0 19 0;
#X connect 15 0 14 0;
#X connect 17 0 11 0;
#X connect 18 0 0 0;
#X connect 19 0 18 1;
#X connect 20 0 15 0;
#X connect 21 0 3 0;
#X connect 22 0 30 0;
#X connect 23 0 31 0;
#X connect 24 0 25 0;
#X connect 25 0 26 0;
#X connect 26 0 23 0;
#X connect 30 0 25 1;
#X connect 31 0 32 0;
#X connect 32 0 35 0;
#X connect 33 0 42 0;
#X connect 34 0 10 0;
#X connect 35 0 51 0;
#X connect 36 0 35 1;
#X connect 37 0 41 0;
#X connect 41 0 36 0;
#X connect 42 0 22 0;
#X connect 43 0 8 0;
#X connect 44 0 49 0;
#X connect 45 0 44 0;
#X connect 46 0 47 0;
#X connect 47 0 17 0;
#X connect 47 1 11 1;
#X connect 48 0 45 0;
#X connect 49 0 50 0;
#X connect 50 0 24 0;
